<svg xmlns="http://www.w3.org/2000/svg" width="60.302" height="53.352" viewBox="0 0 60.302 53.352">
  <g id="Group_4780" data-name="Group 4780" transform="translate(0.5 0.5)">
    <g id="pie-chart_1_" data-name="pie-chart (1)">
      <path id="Path_13007" data-name="Path 13007" d="M307.9,98.383l-18.254,18.256L307.9,134.895c.436-.708,7.5-7.209,7.5-18.256S308.319,99.064,307.9,98.383Zm-.265,31.332L294.56,116.639l13.075-13.076a22.072,22.072,0,0,1,0,26.152Z" transform="translate(-256.098 -90.463)" fill="#1e7ae0" stroke="#fff" stroke-width="1"/>
      <path id="Path_13008" data-name="Path 13008" d="M45.833,38.976C45.212,38.54,38.569,30,26.176,30a26.176,26.176,0,1,0,0,52.352c12.323,0,19.038-8.541,19.657-8.976l-17.2-17.2Zm-19.657-5.5a22.379,22.379,0,0,1,14.7,5.546L8.95,70.945a22.689,22.689,0,0,1,17.226-37.47ZM20.964,63.845l3.475-3.475V78.812a22.6,22.6,0,0,1-3.475-.539Zm-3.475,13.3A22.738,22.738,0,0,1,11.407,73.4l6.082-6.082ZM34.863,77.1V67.32l6.012,6.012A22.971,22.971,0,0,1,34.863,77.1ZM31.388,63.845V78.254a22.049,22.049,0,0,1-3.475.554V60.371Z" transform="translate(0 -30)" fill="#1e7ae0" stroke="#fff" stroke-width="1"/>
      <path id="Path_13009" data-name="Path 13009" d="M121,121h3.475v3.475H121Z" transform="translate(-106.985 -110.46)" fill="#1e7ae0" stroke="#fff" stroke-width="1"/>
      <path id="Path_13010" data-name="Path 13010" d="M181,181h3.475v3.475H181Z" transform="translate(-160.036 -163.511)" fill="#1e7ae0" stroke="#fff" stroke-width="1"/>
      <path id="Path_13011" data-name="Path 13011" d="M0,0H13.3V3.475H0Z" transform="translate(13.292 19.226) rotate(-45)" fill="#1e7ae0" stroke="#fff" stroke-width="1"/>
    </g>
  </g>
</svg>
