<svg xmlns="http://www.w3.org/2000/svg" width="51.927" height="54.177" viewBox="0 0 51.927 54.177">
  <g id="Group_4778" data-name="Group 4778" transform="translate(0)">
    <path id="Path_690" data-name="Path 690" d="M234.859,1611.387c.7.385.922.8.764,1.436a.968.968,0,0,1-.878.79,5.5,5.5,0,0,1-.686.022H216.92a3.508,3.508,0,0,0-3.831,3.8q0,18.09,0,36.18v.609h6.772c0-.317-.005-.644,0-.97a5.566,5.566,0,0,1,4.441-5.614,7.462,7.462,0,0,1,1.521-.143c2.045-.016,4.091-.009,6.136,0a5.613,5.613,0,0,1,5.967,5.959c0,.244,0,.489,0,.772H244.7v-1.475c0-1.481-.01-2.962,0-4.443a1.186,1.186,0,0,1,1.532-1.183.973.973,0,0,1,.692.849,2.406,2.406,0,0,1,.018.316c0,3.879.03,7.758-.01,11.636a5.522,5.522,0,0,1-5.737,5.632q-11.584.014-23.168,0a12.619,12.619,0,0,1-2.838-.168,5.356,5.356,0,0,1-4.257-4.457,1.41,1.41,0,0,0-.094-.237v-44.439a1.329,1.329,0,0,0,.094-.235,5.461,5.461,0,0,1,3.724-4.328c.342-.123.7-.2,1.049-.3Zm-21.77,45.175c0,1,0,1.962,0,2.927a3.511,3.511,0,0,0,3.809,3.823h12.9c3.772,0,7.544.006,11.317,0a3.367,3.367,0,0,0,3.507-2.882,33.217,33.217,0,0,0,.029-3.865Zm22.618-2.328a15.752,15.752,0,0,0-.123-1.755,3.364,3.364,0,0,0-3.121-2.691c-2.377-.036-4.755-.053-7.13,0a3.49,3.49,0,0,0-3.108,4.442Z" transform="translate(-210.841 -1611.387)" fill="#1e7ae0"/>
    <path id="Path_691" data-name="Path 691" d="M246.308,1634.649c-1.111,0-2.132,0-3.152,0a3.425,3.425,0,0,1-3.618-3.61c-.006-3.6.067-7.2-.029-10.792a3.822,3.822,0,0,1,3.651-3.663c6.595.062,13.19.023,19.785.026a3.461,3.461,0,0,1,3.676,3.676q.007,5.343,0,10.686a3.463,3.463,0,0,1-3.676,3.677c-2.381,0-4.762.016-7.142-.011a1.588,1.588,0,0,0-1.209.485c-2.1,1.989-4.223,3.951-6.324,5.939a1.248,1.248,0,0,1-1.362.3,1.078,1.078,0,0,1-.6-1.142c0-.141,0-.282,0-.423v-5.144Zm2.248,3.146c.167-.141.247-.2.323-.274,1.689-1.547,3.384-3.089,5.062-4.649a1.67,1.67,0,0,1,1.232-.48c2.626.016,5.252.008,7.878.008.957,0,1.293-.327,1.295-1.3q.008-5.473,0-10.945c0-.92-.373-1.292-1.279-1.292q-9.995,0-19.988,0c-.906,0-1.292.384-1.293,1.287q-.005,5.473,0,10.945c0,.935.38,1.306,1.326,1.309,1.374,0,2.75,0,4.125,0,.944,0,1.315.373,1.319,1.316C248.56,1635.037,248.556,1636.358,248.556,1637.8Z" transform="translate(-214.698 -1612.086)" fill="#1e7ae0"/>
    <path id="Path_692" data-name="Path 692" d="M235.848,1645.022a4.913,4.913,0,1,1-4.884-4.931A4.918,4.918,0,0,1,235.848,1645.022Zm-4.929-2.483a2.463,2.463,0,1,0,2.48,2.436A2.343,2.343,0,0,0,230.92,1642.539Z" transform="translate(-212.884 -1615.249)" fill="#1e7ae0"/>
    <path id="Path_693" data-name="Path 693" d="M261.529,1625.731a1.129,1.129,0,1,1-1.134,1.124A1.085,1.085,0,0,1,261.529,1625.731Z" transform="translate(-217.508 -1613.317)" fill="#1e7ae0"/>
    <path id="Path_694" data-name="Path 694" d="M256.117,1626.838a1.062,1.062,0,0,1-1.093,1.15,1.13,1.13,0,0,1-.042-2.259A1.064,1.064,0,0,1,256.117,1626.838Z" transform="translate(-216.632 -1613.317)" fill="#1e7ae0"/>
    <path id="Path_695" data-name="Path 695" d="M249.611,1626.87a1.083,1.083,0,0,1-1.135,1.12,1.13,1.13,0,0,1,.021-2.26A1.085,1.085,0,0,1,249.611,1626.87Z" transform="translate(-215.756 -1613.317)" fill="#1e7ae0"/>
  </g>
</svg>
