<svg id="Group_4779" data-name="Group 4779" xmlns="http://www.w3.org/2000/svg" width="42.805" height="53.456" viewBox="0 0 42.805 53.456">
  <path id="Path_688" data-name="Path 688" d="M235.3,1365.564a2.314,2.314,0,0,1,1.547,1.559,2.087,2.087,0,0,1-.247,1.657c-.26.43-.515.864-.8,1.342.366.116.706.217,1.043.329a8,8,0,0,1,5.455,7.515c.009,2.262,0,4.524-.008,6.786a9.2,9.2,0,0,1-.85,3.995,3.85,3.85,0,0,1-2.174,2.063.58.58,0,0,0-.438.587,11.492,11.492,0,0,1-4.854,8.456,1.189,1.189,0,0,0-.519,1.425,5.208,5.208,0,0,1,3.021,1.589c.111.117.387.1.587.11a11.466,11.466,0,0,1,10.493,6.946,10.779,10.779,0,0,1,.982,4.451c.02.9.014,1.81.009,2.714a1.8,1.8,0,0,1-1.921,1.93q-19.471.005-38.942,0a1.715,1.715,0,0,1-1.882-1.571,18.894,18.894,0,0,1,.415-6.062,11.616,11.616,0,0,1,11.033-8.4,1.126,1.126,0,0,0,.864-.359,4.827,4.827,0,0,1,2.743-1.347,1.18,1.18,0,0,0-.527-1.42,11.471,11.471,0,0,1-4.882-8.384.722.722,0,0,0-.516-.721,3.585,3.585,0,0,1-2-1.887,9.209,9.209,0,0,1-.925-4.031c0-1.931,0-3.862,0-5.794a13.355,13.355,0,0,1,10.741-13.215c.49-.1.987-.176,1.481-.264Zm-17.947,17.793c0,.261,0,.522,0,.783-.008.689-.305,1.062-.859,1.081s-.845-.344-.941-1.017a3.4,3.4,0,0,0-.4-1.265.916.916,0,0,0-.789-.3.844.844,0,0,0-.533.6,10.119,10.119,0,0,0,.53,4.465,2.538,2.538,0,0,0,1.625,1.565,1.656,1.656,0,0,1,1.175,1.512c.054.466.108.932.195,1.393a10,10,0,0,0,19.8-1.3,1.758,1.758,0,0,1,1.294-1.648,2.315,2.315,0,0,0,1.413-1.3,9.534,9.534,0,0,0,.631-4.651.9.9,0,0,0-.557-.637.878.878,0,0,0-.777.314,4.558,4.558,0,0,0-.4,1.375c-.1.574-.429.917-.957.889a.86.86,0,0,1-.828-.947c-.012-.592.005-1.183-.009-1.774a.865.865,0,0,0-.878-.959,14.086,14.086,0,0,1-8.252-3.239.879.879,0,0,0-1.268.023,16.02,16.02,0,0,1-1.336,1,14.558,14.558,0,0,1-6.232,2.064C217.056,1381.588,217.369,1382.078,217.356,1383.357Zm23.166-2.584c0-.83.016-1.767,0-2.7a6.151,6.151,0,0,0-2.993-5.349,6.723,6.723,0,0,0-4.051-.915,6.236,6.236,0,0,1-1.092-.026.876.876,0,0,1,.082-1.742,8.332,8.332,0,0,0,.936-.025.942.942,0,0,0,.564-.327c.364-.528.679-1.09,1-1.645.291-.5.176-.7-.4-.7-3.112,0-6.226-.054-9.338.016a11.305,11.305,0,0,0-9.436,5.091,12.336,12.336,0,0,0-1.96,8.314l2.077.25a2.878,2.878,0,0,1,2.4-1.34c.517-.065,1.035-.134,1.544-.241a11.853,11.853,0,0,0,5.436-2.362,2.65,2.65,0,0,1,3.8-.053,12.3,12.3,0,0,0,7.129,2.739,2.642,2.642,0,0,1,2.006,1.061c.082.105.17.208.156.191Zm-3.564,24c-.349,4.438-.922,8.741-3.637,12.425H246.71c.317-3.6-.153-6.936-2.854-9.582A9.659,9.659,0,0,0,236.958,1404.772Zm-19.605-.02c-.52.043-.974.048-1.417.122a9.755,9.755,0,0,0-8.356,9.182c-.076,1.048-.011,2.106-.011,3.143h13.193C218.133,1413.455,217.693,1409.15,217.353,1404.752Zm12.2,12.466a.828.828,0,0,0,.008-.187c-.42-1.918-.837-3.836-1.279-5.748a.524.524,0,0,0-.4-.272c-.468-.035-.939.005-1.408-.02-.31-.016-.417.1-.474.4-.149.768-.336,1.527-.5,2.29-.258,1.167-.515,2.335-.78,3.537Zm-10.066-8.865c.089.531.168,1.078.274,1.619a15.182,15.182,0,0,0,1.8,5.18,19.5,19.5,0,0,0,1.359,1.732c.091-.3.133-.417.159-.534.366-1.642.671-3.3,1.116-4.919a1.428,1.428,0,0,0-.627-1.84c-.592.622-.806.687-1.58.265C221.152,1409.4,220.357,1408.88,219.486,1408.352Zm11.827,8.317c2.281-2.412,2.925-5.328,3.475-8.291-.859.52-1.656,1.041-2.489,1.5-.731.4-.972.325-1.6-.35a7.36,7.36,0,0,0-.541.639.764.764,0,0,0-.17.5C230.406,1412.609,230.844,1414.554,231.313,1416.669Zm.4-15.3-.175-.128a12.142,12.142,0,0,1-4.366.857,14.6,14.6,0,0,1-4.5-.791,2.561,2.561,0,0,0,.349,1.094,6.008,6.008,0,0,0,3.271,2.1,2.1,2.1,0,0,0,.956.19,6.369,6.369,0,0,0,4.064-2.323A4.215,4.215,0,0,0,231.713,1401.369Zm.521,6.511a6.075,6.075,0,0,0,2.352-2.115c.912-1.588.8-2.025-1.1-2.664a.54.54,0,0,0-.253-.043.5.5,0,0,0-.306.133,7.18,7.18,0,0,1-2.709,2.37ZM224,1405.67c-.712-.636-1.526-1.281-2.24-2.022-.643-.666-.686-.734-1.552-.329-.173.08-.332.187-.5.28a.89.89,0,0,0-.433,1.216,5.842,5.842,0,0,0,2.8,3.079Zm.48,2.119c.808,1.8,2.369,1.477,3.8,1.4.806-.042,1.048-.918,1.634-1.312A3.57,3.57,0,0,0,224.481,1407.789Z" transform="translate(-205.751 -1365.564)" fill="#1e7ae0"/>
</svg>
