<svg xmlns="http://www.w3.org/2000/svg" width="41.355" height="55.457" viewBox="0 0 41.355 55.457">
  <g id="Group_4727" data-name="Group 4727" transform="translate(1 1)">
    <g id="Group_290" data-name="Group 290">
      <g id="Path_685" data-name="Path 685" transform="translate(-208.362 -1129.485)" fill="#1e7ae0" stroke-linecap="round" stroke-linejoin="bevel">
        <path d="M 220.1220550537109 1183.44140625 C 218.944091796875 1183.44140625 218.4506225585938 1182.468139648438 218.1855163574219 1181.9453125 C 218.0131988525391 1181.605590820312 217.8276062011719 1181.261474609375 217.6481323242188 1180.9287109375 C 217.3515625 1180.378784179688 217.0449066162109 1179.81005859375 216.7780914306641 1179.22607421875 C 216.6386566162109 1178.920288085938 216.5667266845703 1178.920288085938 216.528076171875 1178.920288085938 C 216.4813842773438 1178.920288085938 216.3938140869141 1178.93212890625 216.2418365478516 1178.988403320312 C 215.6699523925781 1179.199829101562 215.0842132568359 1179.383666992188 214.5177612304688 1179.5615234375 C 214.0985107421875 1179.693115234375 213.6649932861328 1179.8291015625 213.2462005615234 1179.973754882812 C 212.8226318359375 1180.120483398438 212.4940948486328 1180.18603515625 212.1814422607422 1180.18603515625 C 211.6564025878906 1180.18603515625 211.2041625976562 1179.988159179688 210.8372497558594 1179.597900390625 C 209.9661865234375 1178.672485351562 210.4287261962891 1177.591796875 210.6510009765625 1177.072387695312 C 211.9467010498047 1174.044189453125 213.2606201171875 1170.962524414062 214.5312805175781 1167.982299804688 L 215.7837371826172 1165.045166015625 C 216.0111236572266 1164.511962890625 215.9894256591797 1163.831787109375 215.7241668701172 1163.178955078125 C 215.4584503173828 1162.52490234375 214.9980621337891 1162.021118164062 214.4610748291016 1161.796752929688 C 214.2115020751953 1161.692260742188 213.9542388916016 1161.58984375 213.7054443359375 1161.49072265625 C 213.3358001708984 1161.343505859375 212.9535827636719 1161.191284179688 212.5795745849609 1161.02587890625 C 211.6926422119141 1160.633544921875 211.0037231445312 1160.027954101562 210.5872802734375 1159.274536132812 C 210.1721801757812 1158.523559570312 210.02392578125 1157.618530273438 210.1585540771484 1156.657592773438 C 210.1851959228516 1156.467651367188 210.2111206054688 1156.277709960938 210.2370758056641 1156.087646484375 C 210.2880249023438 1155.71435546875 210.3407135009766 1155.328369140625 210.398193359375 1154.948120117188 C 210.5191650390625 1154.146606445312 210.3974456787109 1153.649169921875 209.9780578613281 1153.2314453125 C 209.6729736328125 1152.92724609375 209.4248046875 1152.584838867188 209.1847839355469 1152.253662109375 C 209.09716796875 1152.1328125 209.014404296875 1152.0185546875 208.9286956787109 1151.905639648438 C 208.2349853515625 1150.99072265625 207.8762359619141 1150.080810546875 207.8622741699219 1149.201293945312 C 207.8472442626953 1148.253662109375 208.2280426025391 1147.36474609375 208.9941253662109 1146.559448242188 C 210.2563323974609 1145.232543945312 210.6129608154297 1143.823852539062 210.1865997314453 1141.848876953125 C 209.7571716308594 1139.855346679688 210.7649688720703 1138.052734375 212.6373443603516 1137.465209960938 C 214.6219329833984 1136.840454101562 215.7130279541016 1135.76904296875 216.2853088378906 1133.882568359375 C 216.7922821044922 1132.211669921875 218.0802154541016 1131.214111328125 219.7305145263672 1131.214111328125 C 220.0870361328125 1131.214111328125 220.4562683105469 1131.262329101562 220.8279418945312 1131.357177734375 C 221.3088684082031 1131.47998046875 221.7492523193359 1131.539672851562 222.1741638183594 1131.539672851562 C 223.3307037353516 1131.53955078125 224.3500518798828 1131.08837890625 225.4793395996094 1130.076782226562 C 226.2776641845703 1129.362426757812 227.1735382080078 1128.98486328125 228.0703125 1128.98486328125 C 228.9624176025391 1128.98486328125 229.8562469482422 1129.358764648438 230.6551666259766 1130.066162109375 C 231.8050384521484 1131.084106445312 232.8296051025391 1131.5380859375 233.9772186279297 1131.537963867188 C 234.3966217041016 1131.537963867188 234.83056640625 1131.479370117188 235.3038635253906 1131.35888671875 C 235.6783142089844 1131.263427734375 236.0488128662109 1131.214965820312 236.4049682617188 1131.214965820312 C 238.0761108398438 1131.214965820312 239.3977203369141 1132.2783203125 239.9402770996094 1134.059448242188 C 240.4680633544922 1135.794067382812 241.4178924560547 1136.749755859375 243.2187957763672 1137.35791015625 C 244.4520568847656 1137.774291992188 245.2565612792969 1138.420166015625 245.6782379150391 1139.33251953125 C 246.0858154296875 1140.21435546875 246.1410522460938 1141.330078125 245.8520355224609 1142.84375 C 245.5959320068359 1144.185913085938 245.8103790283203 1145.04052734375 246.5922241210938 1145.79345703125 C 247.0050354003906 1146.191528320312 247.3185272216797 1146.681640625 247.5799865722656 1147.109741210938 C 248.4206848144531 1148.485107421875 248.4232330322266 1149.954711914062 247.5872344970703 1151.359619140625 C 247.5736541748047 1151.38232421875 247.5604248046875 1151.404907226562 247.5471496582031 1151.427490234375 C 247.4429473876953 1151.605102539062 247.3248443603516 1151.806274414062 247.1383666992188 1151.972045898438 C 245.8777008056641 1153.096313476562 245.5032501220703 1154.502197265625 245.9248809814453 1156.529907226562 C 246.3475036621094 1158.561401367188 245.4708251953125 1160.170166015625 243.4563446044922 1161.059692382812 C 243.3811950683594 1161.092895507812 243.3044738769531 1161.130126953125 243.2232513427734 1161.169555664062 C 242.9838256835938 1161.28564453125 242.7124633789062 1161.417358398438 242.408935546875 1161.472412109375 C 241.2063446044922 1161.690063476562 240.5323333740234 1162.453491210938 240.1549987792969 1164.025024414062 C 240.0998229980469 1164.256225585938 240.1543426513672 1164.620239257812 240.2940368652344 1164.951782226562 C 241.6222229003906 1168.106811523438 242.9922332763672 1171.3076171875 244.3171539306641 1174.403076171875 C 244.6715850830078 1175.231201171875 245.0260467529297 1176.059326171875 245.3801422119141 1176.887573242188 C 245.3949279785156 1176.922119140625 245.4209136962891 1176.96875 245.4484252929688 1177.01806640625 C 245.5396575927734 1177.181762695312 245.6646270751953 1177.405883789062 245.6449737548828 1177.677612304688 C 245.6369934082031 1177.78857421875 245.6339874267578 1177.911376953125 245.6307830810547 1178.041381835938 C 245.6178436279297 1178.568237304688 245.6031646728516 1179.165283203125 245.2360229492188 1179.557373046875 C 244.8684997558594 1179.949340820312 244.2138214111328 1180.0888671875 243.7236022949219 1180.0888671875 C 243.7235412597656 1180.0888671875 243.7235565185547 1180.0888671875 243.7234954833984 1180.0888671875 C 243.5423889160156 1180.0888671875 243.3729248046875 1180.070678710938 243.2198028564453 1180.034790039062 C 242.2419128417969 1179.805053710938 241.306884765625 1179.495483398438 240.3169708251953 1179.167724609375 C 240.0603332519531 1179.082763671875 239.7978820800781 1178.995849609375 239.5325622558594 1178.909790039062 C 239.4060668945312 1179.154174804688 239.2828674316406 1179.396484375 239.1624145507812 1179.633544921875 C 238.7134246826172 1180.516845703125 238.2893371582031 1181.351318359375 237.7724761962891 1182.148803710938 C 237.4679565429688 1182.618408203125 236.703125 1183.363403320312 235.9468994140625 1183.363403320312 C 235.9292449951172 1183.363403320312 235.9116058349609 1183.362915039062 235.8942260742188 1183.362060546875 C 235.1937713623047 1183.328857421875 234.3935089111328 1182.59375 234.1134033203125 1181.954711914062 C 232.6758575439453 1178.68359375 231.2615814208984 1175.332153320312 229.8938446044922 1172.091064453125 C 229.5119323730469 1171.18603515625 229.1297149658203 1170.2802734375 228.7461853027344 1169.374267578125 L 227.3960418701172 1169.374267578125 L 226.8958435058594 1170.543334960938 C 226.3424224853516 1171.83642578125 225.7701568603516 1173.173461914062 225.2059326171875 1174.4990234375 C 224.3589324951172 1176.48828125 223.2425994873047 1179.11328125 222.1186065673828 1181.776977539062 C 221.8657073974609 1182.378051757812 221.4421081542969 1183.384887695312 220.2226715087891 1183.439086914062 C 220.1889190673828 1183.440673828125 220.1552124023438 1183.44140625 220.1220550537109 1183.44140625 Z M 217.5491027832031 1174.714233398438 C 218.0806121826172 1174.714233398438 218.8216705322266 1174.92431640625 219.3336029052734 1175.925048828125 C 219.5284423828125 1176.305419921875 219.7313690185547 1176.678955078125 219.9604339599609 1177.09765625 C 220.7522430419922 1175.236694335938 221.528564453125 1173.411865234375 222.3069458007812 1171.582153320312 L 224.1213989257812 1167.317260742188 C 224.05908203125 1167.28515625 223.9976959228516 1167.2529296875 223.9369201660156 1167.220947265625 C 223.5940399169922 1167.040649414062 223.2701873779297 1166.870239257812 223.0233459472656 1166.870239257812 L 223.0101165771484 1166.870483398438 C 222.0216827392578 1166.894409179688 221.0375823974609 1167.018798828125 219.9956970214844 1167.150512695312 C 219.6650848388672 1167.192260742188 219.3256988525391 1167.235229492188 218.9822692871094 1167.275146484375 C 218.3389892578125 1168.783081054688 217.6810913085938 1170.324829101562 217.0038299560547 1171.911865234375 L 215.5960693359375 1175.211059570312 C 215.998046875 1175.089233398438 216.3588104248047 1174.978515625 216.7130737304688 1174.861206054688 C 217.0073089599609 1174.763671875 217.2886352539062 1174.714233398438 217.5491027832031 1174.714233398438 Z M 232.0394897460938 1167.3828125 L 233.4726867675781 1170.753051757812 L 236.1694641113281 1177.0947265625 C 236.4055328369141 1176.657836914062 236.6139678955078 1176.270874023438 236.8182525634766 1175.87744140625 C 237.3167572021484 1174.91455078125 238.0478820800781 1174.712280273438 238.5733795166016 1174.712280273438 C 238.8192749023438 1174.712280273438 239.0840911865234 1174.755859375 239.3604583740234 1174.841918945312 C 239.7343444824219 1174.958374023438 240.1028137207031 1175.070922851562 240.5164337158203 1175.197021484375 C 239.8995971679688 1173.754028320312 239.2988891601562 1172.348266601562 238.7118835449219 1170.974731445312 L 237.1071319580078 1167.219848632812 L 236.7465667724609 1167.191284179688 C 235.9622650146484 1167.129272460938 235.2214660644531 1167.070556640625 234.4892578125 1167.009765625 C 234.294189453125 1166.993774414062 234.0994415283203 1166.967529296875 233.9111022949219 1166.942138671875 C 233.6256256103516 1166.903686523438 233.3559875488281 1166.867309570312 233.1045837402344 1166.867309570312 C 232.6853179931641 1166.867309570312 232.3376770019531 1166.960693359375 232.0394897460938 1167.3828125 Z M 222.9051361083984 1162.960571289062 C 224.5558776855469 1162.960571289062 225.9696197509766 1163.581665039062 227.1071166992188 1164.806640625 C 227.1392669677734 1164.841430664062 227.2138061523438 1164.88671875 227.2859039306641 1164.930419921875 C 227.4029235839844 1165.00146484375 227.5485687255859 1165.08984375 227.6739959716797 1165.2236328125 C 227.7786865234375 1165.33544921875 227.9293060302734 1165.468383789062 228.0545654296875 1165.46826171875 C 228.1646575927734 1165.46826171875 228.3279876708984 1165.369995117188 228.5144958496094 1165.191528320312 C 230.1014099121094 1163.670043945312 231.6933746337891 1162.930297851562 233.3810272216797 1162.930297851562 C 233.9505157470703 1162.930297851562 234.5411682128906 1163.015747070312 235.1365814208984 1163.183959960938 C 235.2309265136719 1163.210693359375 235.3196868896484 1163.236450195312 235.4033508300781 1163.2607421875 C 235.7149658203125 1163.351196289062 235.9611053466797 1163.422729492188 236.1004791259766 1163.422729492188 C 236.1461944580078 1163.422729492188 236.1599884033203 1163.422729492188 236.2220153808594 1163.3271484375 C 236.3629150390625 1163.110107421875 236.5142059326172 1162.656860351562 236.6436309814453 1162.2421875 C 237.4015808105469 1159.81201171875 238.8879699707031 1158.3662109375 241.1876983642578 1157.822265625 C 241.2193450927734 1157.814819335938 241.2751159667969 1157.788208007812 241.3290405273438 1157.762451171875 C 241.4143829345703 1157.721801757812 241.5205993652344 1157.671020507812 241.6445922851562 1157.638427734375 C 242.0977935791016 1157.52001953125 242.2111663818359 1157.333984375 242.1121063232422 1156.87255859375 C 242.0687561035156 1156.669189453125 242.0414276123047 1156.469604492188 242.0150146484375 1156.276611328125 C 241.9995269775391 1156.163452148438 241.9848937988281 1156.056518554688 241.9673919677734 1155.9501953125 C 241.8228759765625 1155.072143554688 241.7424163818359 1154.335571289062 241.8194732666016 1153.594970703125 C 241.9125061035156 1152.701171875 242.2329254150391 1151.930297851562 242.7990417480469 1151.238159179688 C 243.6320495605469 1150.220336914062 244.0667419433594 1149.67041015625 244.0676116943359 1149.265625 C 244.0684967041016 1148.857299804688 243.6304626464844 1148.292114257812 242.8352966308594 1147.265991210938 C 241.8689117431641 1146.018676757812 241.5589599609375 1144.841064453125 241.8568420410156 1143.555908203125 C 241.9597930908203 1143.1103515625 242.0032958984375 1142.638671875 242.0453796386719 1142.182495117188 C 242.0638580322266 1141.982177734375 242.0813598632812 1141.79248046875 242.1035919189453 1141.604736328125 L 242.1051330566406 1141.553955078125 C 242.1114654541016 1141.348266601562 242.1185913085938 1141.11669921875 242.0984344482422 1141.037719726562 C 242.0536499023438 1141.006713867188 241.9240570068359 1140.95263671875 241.5752563476562 1140.862670898438 C 240.2093811035156 1140.511474609375 239.0842590332031 1139.895263671875 238.2313995361328 1139.03125 C 237.3863372802734 1138.175170898438 236.7843475341797 1137.051147460938 236.4421539306641 1135.690307617188 C 236.4392852783203 1135.679443359375 236.4364624023438 1135.67138671875 236.433837890625 1135.663208007812 C 236.42822265625 1135.645874023438 236.4226531982422 1135.62841796875 236.4175567626953 1135.61083984375 C 236.2849884033203 1135.16796875 236.1390686035156 1135.16796875 235.9701232910156 1135.16796875 C 235.8774566650391 1135.16796875 235.7648162841797 1135.182006835938 235.6353149414062 1135.209838867188 C 234.7127227783203 1135.407592773438 233.9652252197266 1135.499633789062 233.2825775146484 1135.499633789062 C 231.6981353759766 1135.499633789062 230.3743438720703 1134.980346679688 229.2355804443359 1133.911987304688 C 229.1652984619141 1133.846069335938 229.0984954833984 1133.783203125 229.0348968505859 1133.723266601562 C 228.6524658203125 1133.363159179688 228.2190246582031 1132.955078125 228.100341796875 1132.955078125 C 227.9897766113281 1132.955078125 227.6011962890625 1133.282592773438 227.2583618164062 1133.571655273438 C 227.1303863525391 1133.679443359375 226.9887847900391 1133.798828125 226.8306427001953 1133.929443359375 C 225.9143524169922 1134.686401367188 224.6535949707031 1135.555297851562 223.0240173339844 1135.555297851562 C 222.7130432128906 1135.555297851562 222.3929290771484 1135.523559570312 222.0725860595703 1135.4609375 C 221.9296722412109 1135.432861328125 221.7735290527344 1135.419311523438 221.6082153320312 1135.404907226562 C 221.3131256103516 1135.379028320312 221.0079956054688 1135.352416992188 220.7017669677734 1135.241455078125 C 220.5172119140625 1135.174438476562 220.3568420410156 1135.140502929688 220.2247924804688 1135.140502929688 C 220.0664978027344 1135.140502929688 219.7718658447266 1135.140502929688 219.5417022705078 1135.99365234375 C 218.8805236816406 1138.447143554688 217.4304046630859 1139.970458984375 215.1085510253906 1140.650634765625 C 214.6115112304688 1140.796142578125 214.0742950439453 1140.965209960938 213.9912872314453 1141.1298828125 C 213.9046630859375 1141.301513671875 214.0041046142578 1141.828735351562 214.1299743652344 1142.49609375 C 214.1358642578125 1142.5283203125 214.1450042724609 1142.564331054688 214.1546936035156 1142.602416992188 C 214.1699676513672 1142.66259765625 214.1872863769531 1142.730834960938 214.1992797851562 1142.8076171875 C 214.4293365478516 1144.257202148438 214.4858551025391 1145.796264648438 213.350341796875 1147.2216796875 C 212.5227661132812 1148.260375976562 212.0910034179688 1148.821655273438 212.0927124023438 1149.235473632812 C 212.0944366455078 1149.65576171875 212.5381622314453 1150.232299804688 213.3436889648438 1151.279052734375 L 213.3511962890625 1151.288818359375 C 214.175048828125 1152.358276367188 214.4970397949219 1153.365844726562 214.3643341064453 1154.459594726562 C 214.2894744873047 1155.071533203125 214.1895751953125 1155.703369140625 214.0588989257812 1156.391845703125 C 213.8910980224609 1157.27734375 214.0558776855469 1157.584106445312 214.7935943603516 1157.75927734375 C 216.0505218505859 1158.056762695312 217.0924224853516 1158.609741210938 217.8899841308594 1159.402465820312 C 218.6884307861328 1160.196044921875 219.2465667724609 1161.234497070312 219.5491027832031 1162.489379882812 C 219.5536651611328 1162.498046875 219.5605010986328 1162.510375976562 219.5658874511719 1162.52001953125 C 219.6000061035156 1162.581420898438 219.6515655517578 1162.674072265625 219.6783142089844 1162.79296875 C 219.8055572509766 1163.35009765625 220.035400390625 1163.3525390625 220.2040405273438 1163.3525390625 C 220.2047729492188 1163.3525390625 220.2054748535156 1163.3525390625 220.2061920166016 1163.3525390625 C 220.3276519775391 1163.3525390625 220.4759063720703 1163.329467773438 220.6468353271484 1163.284057617188 C 221.4658050537109 1163.06640625 222.2045288085938 1162.960571289062 222.9051361083984 1162.960571289062 Z" stroke="none"/>
        <path d="M 228.0703277587891 1129.48486328125 C 227.2999572753906 1129.48486328125 226.5311279296875 1129.806518554688 225.8129577636719 1130.44921875 C 224.29150390625 1131.81201171875 222.7830810546875 1132.37255859375 220.7041931152344 1131.841674804688 C 218.8477478027344 1131.367065429688 217.3055572509766 1132.242065429688 216.7637786865234 1134.027709960938 C 216.1207733154297 1136.147338867188 214.8494110107422 1137.293090820312 212.7870483398438 1137.942260742188 C 211.1271209716797 1138.463134765625 210.3075103759766 1140.035766601562 210.6753387451172 1141.743408203125 C 211.1037445068359 1143.727783203125 210.8293914794922 1145.355590820312 209.3563995361328 1146.904052734375 C 207.9708251953125 1148.360595703125 208.1006164550781 1149.98583984375 209.3269805908203 1151.603393554688 C 209.6541137695312 1152.034423828125 209.9509582519531 1152.498291015625 210.3309020996094 1152.877197265625 C 210.9539947509766 1153.497802734375 211.0128936767578 1154.225708007812 210.892578125 1155.022827148438 C 210.8069000244141 1155.589721679688 210.7333374023438 1156.1591796875 210.6537170410156 1156.726928710938 C 210.4105224609375 1158.463012695312 211.1773223876953 1159.85888671875 212.7818450927734 1160.568603515625 C 213.3980560302734 1160.841186523438 214.0315551757812 1161.074829101562 214.6538391113281 1161.33544921875 C 216.0368041992188 1161.913330078125 216.8295593261719 1163.867553710938 216.24365234375 1165.241333007812 C 214.5335388183594 1169.250732421875 212.8251037597656 1173.26220703125 211.1106719970703 1177.269165039062 C 210.8173065185547 1177.95458984375 210.6190795898438 1178.636596679688 211.2015533447266 1179.25537109375 C 211.7450256347656 1179.833618164062 212.4027862548828 1179.736694335938 213.0830383300781 1179.501098632812 C 214.0731048583984 1179.159301757812 215.0865631103516 1178.88232421875 216.0679931640625 1178.519653320312 C 216.6651458740234 1178.29833984375 216.9689331054688 1178.439331054688 217.2328643798828 1179.018310546875 C 217.6534881591797 1179.93896484375 218.1727752685547 1180.81494140625 218.6314697265625 1181.71923828125 C 218.9664001464844 1182.379760742188 219.3438873291016 1182.978759765625 220.2004852294922 1182.939575195312 C 221.0581512451172 1182.901489257812 221.3731994628906 1182.259399414062 221.6579284667969 1181.582641601562 C 222.6826324462891 1179.154174804688 223.71337890625 1176.728149414062 224.7458648681641 1174.30322265625 C 225.5238800048828 1172.475463867188 226.3071136474609 1170.649169921875 227.0661315917969 1168.874267578125 L 229.0774383544922 1168.874267578125 C 230.9035186767578 1173.18505859375 232.6967468261719 1177.48828125 234.5713348388672 1181.754028320312 C 234.7893981933594 1182.25146484375 235.4419555664062 1182.840087890625 235.91796875 1182.862670898438 C 235.9275207519531 1182.863159179688 235.9372100830078 1182.863403320312 235.9468994140625 1182.863403320312 C 236.4169769287109 1182.863403320312 237.0543975830078 1182.337158203125 237.3528900146484 1181.876831054688 C 238.0651550292969 1180.77783203125 238.6138458251953 1179.572143554688 239.2845458984375 1178.30517578125 C 240.6909332275391 1178.749877929688 241.9925537109375 1179.23291015625 243.333984375 1179.547973632812 C 243.8143463134766 1179.660766601562 244.5690002441406 1179.537719726562 244.8710632324219 1179.215576171875 C 245.1774139404297 1178.888427734375 245.1073150634766 1178.1845703125 245.1462707519531 1177.641479492188 C 245.1592407226562 1177.462280273438 245 1177.27001953125 244.9203948974609 1177.084106445312 C 243.2197723388672 1173.106323242188 241.5113677978516 1169.132202148438 239.833251953125 1165.145874023438 C 239.67578125 1164.772094726562 239.5779418945312 1164.2890625 239.6688232421875 1163.908325195312 C 240.0132751464844 1162.4736328125 240.6753692626953 1161.278076171875 242.3196868896484 1160.98046875 C 242.6433715820312 1160.921752929688 242.9462890625 1160.73828125 243.2543792724609 1160.602294921875 C 244.98876953125 1159.83642578125 245.8256683349609 1158.507934570312 245.4353485107422 1156.631713867188 C 245.0259704589844 1154.662841796875 245.2535705566406 1152.98291015625 246.8062133789062 1151.598266601562 C 246.9533081054688 1151.467529296875 247.0537109375 1151.277954101562 247.1575622558594 1151.103881835938 C 247.8975372314453 1149.8603515625 247.9087982177734 1148.606323242188 247.1532592773438 1147.370361328125 C 246.8901214599609 1146.939453125 246.6053924560547 1146.500732421875 246.2453765869141 1146.153564453125 C 245.2406005859375 1145.185913085938 245.1038360595703 1144.09716796875 245.3609008789062 1142.75 C 245.8827667236328 1140.016723632812 245.2423400878906 1138.56884765625 243.0588073730469 1137.831665039062 C 241.1747131347656 1137.1953125 240.0504913330078 1136.139404296875 239.4619750976562 1134.205200195312 C 238.8777770996094 1132.287353515625 237.3450927734375 1131.354370117188 235.4272613525391 1131.843383789062 C 233.3406219482422 1132.37451171875 231.8468933105469 1131.788940429688 230.3236999511719 1130.440551757812 C 229.6039428710938 1129.80322265625 228.8363647460938 1129.48486328125 228.0703277587891 1129.48486328125 M 233.2825622558594 1134.999633789062 C 234.0141448974609 1134.999633789062 234.7643890380859 1134.885131835938 235.5302276611328 1134.721069335938 C 236.3031158447266 1134.554565429688 236.6882171630859 1134.771362304688 236.8976440429688 1135.47119140625 C 236.9071960449219 1135.504028320312 236.9192962646484 1135.536254882812 236.9270629882812 1135.568359375 C 237.5675201416016 1138.115356445312 239.1227264404297 1139.715698242188 241.7000274658203 1140.378540039062 C 242.6606750488281 1140.626098632812 242.6295318603516 1140.743774414062 242.6026916503906 1141.64208984375 C 242.5274047851562 1142.26611328125 242.5023040771484 1142.9833984375 242.3439331054688 1143.668823242188 C 242.0488128662109 1144.942016601562 242.4676971435547 1145.975219726562 243.2275390625 1146.955932617188 C 245.0034637451172 1149.24755859375 245.0389709472656 1149.290771484375 243.18603515625 1151.554809570312 C 242.0851898193359 1152.900512695312 242.2106628417969 1154.349487304688 242.4607696533203 1155.869018554688 C 242.5100860595703 1156.168823242188 242.5377960205078 1156.471313476562 242.6009674072266 1156.767578125 C 242.7558898925781 1157.489379882812 242.4875793457031 1157.93505859375 241.7718658447266 1158.121948242188 C 241.6100311279297 1158.16455078125 241.4646301269531 1158.270751953125 241.3027954101562 1158.308837890625 C 239.0889739990234 1158.83251953125 237.7925109863281 1160.237915039062 237.1209259033203 1162.39111328125 C 236.5410766601562 1164.249267578125 236.3731842041016 1164.052734375 235.0005645751953 1163.665161132812 C 232.5236511230469 1162.965087890625 230.5841827392578 1163.89990234375 228.8601989746094 1165.552734375 C 228.3157958984375 1166.073852539062 227.8415374755859 1166.134155273438 227.3093109130859 1165.565673828125 C 227.1509552001953 1165.396850585938 226.8973693847656 1165.316650390625 226.74072265625 1165.146850585938 C 225.0608673095703 1163.337890625 222.9958801269531 1163.177124023438 220.7751617431641 1163.767333984375 C 219.9270477294922 1163.992431640625 219.3938903808594 1163.793090820312 219.1905059814453 1162.902709960938 C 219.1688842773438 1162.806640625 219.0909881591797 1162.722534179688 219.067626953125 1162.625732421875 C 218.5042114257812 1160.262939453125 217.013916015625 1158.798706054688 214.6780700683594 1158.245727539062 C 213.5261383056641 1157.97216796875 213.3833465576172 1157.271240234375 213.5676727294922 1156.298583984375 C 213.6871337890625 1155.669189453125 213.7901000976562 1155.035888671875 213.8679809570312 1154.3994140625 C 213.9978179931641 1153.329223632812 213.5971221923828 1152.427368164062 212.9549407958984 1151.59375 C 211.1548156738281 1149.254638671875 211.1210479736328 1149.21728515625 212.9592590332031 1146.91015625 C 213.9562835693359 1145.658569335938 213.9320373535156 1144.313720703125 213.7052764892578 1142.884765625 C 213.6897277832031 1142.785278320312 213.6568298339844 1142.6884765625 213.6386413574219 1142.588745117188 C 213.3063049316406 1140.826782226562 213.2777862548828 1140.665771484375 214.9679870605469 1140.170776367188 C 217.2311553955078 1139.5078125 218.4730682373047 1138.037475585938 219.0589599609375 1135.863403320312 C 219.3134307861328 1134.920288085938 219.7799682617188 1134.374633789062 220.8720855712891 1134.771362304688 C 221.2753753662109 1134.91748046875 221.7392883300781 1134.886108398438 222.1685333251953 1134.97021484375 C 223.8872375488281 1135.306274414062 225.2227020263672 1134.609252929688 226.5122375488281 1133.5439453125 C 228.2180480957031 1132.135131835938 227.9792022705078 1132.048461914062 229.5776672363281 1133.54736328125 C 230.7394256591797 1134.63720703125 231.9812164306641 1134.999633789062 233.2825622558594 1134.999633789062 M 241.3988647460938 1175.9892578125 C 240.5429229736328 1175.726928710938 239.8765258789062 1175.526245117188 239.2118682861328 1175.3193359375 C 238.3446960449219 1175.049560546875 237.6895599365234 1175.281982421875 237.2620086669922 1176.107788085938 C 236.9218902587891 1176.762939453125 236.5652923583984 1177.409545898438 236.1161346435547 1178.246948242188 C 234.520263671875 1174.494384765625 232.9927368164062 1170.902099609375 231.4781951904297 1167.340576171875 C 232.2311401367188 1165.96728515625 233.4272155761719 1166.4208984375 234.5306396484375 1166.511474609375 C 235.4610137939453 1166.588745117188 236.3922119140625 1166.661499023438 237.4480743408203 1166.745361328125 C 238.7003784179688 1169.674926757812 240.0080871582031 1172.736083984375 241.3988647460938 1175.9892578125 M 220.0161437988281 1178.243774414062 C 219.5765075683594 1177.43115234375 219.2190856933594 1176.79833984375 218.8884582519531 1176.152709960938 C 218.4471130371094 1175.289916992188 217.7816314697266 1175.033813476562 216.8702392578125 1175.335815429688 C 216.2350006103516 1175.546142578125 215.5911102294922 1175.732177734375 214.7152557373047 1176.001342773438 C 216.0991363525391 1172.757690429688 217.3946990966797 1169.722412109375 218.6366119384766 1166.811157226562 C 220.1451263427734 1166.64501953125 221.5687713623047 1166.4052734375 222.9976348876953 1166.37060546875 C 223.0061798095703 1166.370361328125 223.0147857666016 1166.370239257812 223.0233306884766 1166.370239257812 C 223.5725250244141 1166.370239257812 224.1334686279297 1166.804809570312 224.7692260742188 1167.07177734375 C 223.1638031005859 1170.845092773438 221.6276397705078 1174.45654296875 220.0161437988281 1178.243774414062 M 228.0703125 1128.48486328125 C 229.0864105224609 1128.48486328125 230.0948486328125 1128.902221679688 230.9866180419922 1129.69189453125 C 232.0524597167969 1130.635375976562 232.9468841552734 1131.037963867188 233.9772491455078 1131.037963867188 C 234.3543853759766 1131.037963867188 234.7479705810547 1130.984497070312 235.1804809570312 1130.874267578125 C 235.5950927734375 1130.7685546875 236.0071258544922 1130.714965820312 236.4048614501953 1130.714965820312 C 238.3080444335938 1130.714965820312 239.8084564208984 1131.910766601562 240.4185791015625 1133.913818359375 C 240.8932647705078 1135.473876953125 241.7508697509766 1136.33447265625 243.3787994384766 1136.88427734375 C 244.7490692138672 1137.346923828125 245.6497344970703 1138.0791015625 246.1321105957031 1139.122680664062 C 246.5856628417969 1140.10400390625 246.6527252197266 1141.316162109375 246.3431549072266 1142.9375 C 246.1173248291016 1144.120971679688 246.2788238525391 1144.797485351562 246.9390563964844 1145.433227539062 C 247.3947143554688 1145.872680664062 247.7290649414062 1146.39453125 248.0067138671875 1146.84912109375 C 248.9501953125 1148.392578125 248.9537963867188 1150.040771484375 248.0169219970703 1151.615234375 C 248.003662109375 1151.637451171875 247.9910430908203 1151.659057617188 247.9783630371094 1151.6806640625 C 247.8676605224609 1151.869262695312 247.716064453125 1152.12744140625 247.4705352783203 1152.345703125 C 246.3445129394531 1153.349853515625 246.0282897949219 1154.571166992188 246.4144134521484 1156.428100585938 C 246.6561584472656 1157.590209960938 246.5202941894531 1158.63330078125 246.0105895996094 1159.5283203125 C 245.5309143066406 1160.370483398438 244.739501953125 1161.039672851562 243.6583251953125 1161.51708984375 C 243.5913543701172 1161.546630859375 243.5185852050781 1161.581909179688 243.4415435791016 1161.619384765625 C 243.1865081787109 1161.7431640625 242.8691101074219 1161.897094726562 242.4981536865234 1161.964477539062 C 241.4943084716797 1162.146118164062 240.9737701416016 1162.756591796875 240.6411895751953 1164.141845703125 C 240.6194763183594 1164.232788085938 240.6400604248047 1164.485229492188 240.7548065185547 1164.757690429688 C 242.0822448730469 1167.910888671875 243.4517059326172 1171.110473632812 244.7760925292969 1174.204711914062 C 245.1307983398438 1175.033325195312 245.4855041503906 1175.862060546875 245.8398742675781 1176.691040039062 C 245.8459014892578 1176.704223632812 245.8685760498047 1176.744873046875 245.8851318359375 1176.774536132812 C 245.9932250976562 1176.968505859375 246.1741027832031 1177.29296875 246.1436614990234 1177.713623046875 C 246.1365661621094 1177.812622070312 246.1336822509766 1177.9296875 246.1306457519531 1178.0537109375 C 246.1162567138672 1178.639282226562 246.0983428955078 1179.368041992188 245.6009826660156 1179.899047851562 C 245.0008087158203 1180.539184570312 244.0122222900391 1180.5888671875 243.7235260009766 1180.5888671875 C 243.5040435791016 1180.5888671875 243.2961578369141 1180.566284179688 243.1056365966797 1180.521606445312 C 242.1058959960938 1180.286743164062 241.1606140136719 1179.973754882812 240.1598358154297 1179.642333984375 C 240.0352783203125 1179.60107421875 239.9093475341797 1179.559448242188 239.7824401855469 1179.517578125 C 239.7236938476562 1179.632690429688 239.6656188964844 1179.746948242188 239.608154296875 1179.859985351562 C 239.1530456542969 1180.755493164062 238.7231903076172 1181.601196289062 238.1920623779297 1182.420654296875 C 237.8159942626953 1183.000732421875 236.9078521728516 1183.863403320312 235.9468994140625 1183.863403320312 C 235.9214324951172 1183.863403320312 235.89599609375 1183.86279296875 235.8708953857422 1183.861572265625 C 234.9450531005859 1183.817626953125 234.0001525878906 1182.941772460938 233.6554718017578 1182.155517578125 C 232.2166137695312 1178.88134765625 230.8015747070312 1175.528076171875 229.4331359863281 1172.285400390625 C 229.0941467285156 1171.482055664062 228.7549896240234 1170.678344726562 228.4148406982422 1169.874267578125 L 227.7259521484375 1169.874267578125 L 227.3555145263672 1170.739990234375 C 226.8021850585938 1172.032958984375 226.2300262451172 1173.369750976562 225.6659851074219 1174.694946289062 C 224.8191680908203 1176.683715820312 223.7030792236328 1179.307983398438 222.5792694091797 1181.971435546875 C 222.3202056884766 1182.587158203125 221.7803039550781 1183.870361328125 220.2448577880859 1183.938598632812 C 220.2038726806641 1183.9404296875 220.1626434326172 1183.94140625 220.1220550537109 1183.94140625 C 218.6370239257812 1183.94140625 218.0308837890625 1182.745971679688 217.7395782470703 1182.171508789062 C 217.5701141357422 1181.83740234375 217.3860321044922 1181.49609375 217.2080078125 1181.165893554688 C 216.9158172607422 1180.624145507812 216.6139373779297 1180.064331054688 216.3458099365234 1179.48291015625 C 215.7845001220703 1179.687866210938 215.2171020507812 1179.865966796875 214.6676635742188 1180.038452148438 C 214.2516784667969 1180.169067382812 213.821533203125 1180.304077148438 213.4093627929688 1180.446411132812 C 213.1130523681641 1180.549072265625 212.6620941162109 1180.68603515625 212.1814422607422 1180.68603515625 C 211.5223541259766 1180.68603515625 210.9315490722656 1180.42822265625 210.4729461669922 1179.940307617188 C 209.3776702880859 1178.776733398438 209.9478607177734 1177.444580078125 210.1913299560547 1176.875732421875 C 211.4873046875 1173.8466796875 212.8016204833984 1170.76416015625 214.0726470947266 1167.783081054688 L 215.3238220214844 1164.848999023438 C 215.4967346191406 1164.443603515625 215.4732208251953 1163.8896484375 215.2609252929688 1163.367065429688 C 215.0482025146484 1162.843505859375 214.6771240234375 1162.428955078125 214.2682952880859 1162.258178710938 C 214.0224151611328 1162.155151367188 213.7672271728516 1162.053588867188 213.5204467773438 1161.955200195312 C 213.1465301513672 1161.806396484375 212.7598724365234 1161.65234375 212.3773040771484 1161.483154296875 C 210.3727874755859 1160.596435546875 209.3582305908203 1158.7666015625 209.6633911132812 1156.588256835938 C 209.6899566650391 1156.398803710938 209.7158050537109 1156.20947265625 209.7416534423828 1156.02001953125 C 209.7928619384766 1155.64501953125 209.8457946777344 1155.257202148438 209.90380859375 1154.873413085938 C 210.0146636962891 1154.138916015625 209.8856048583984 1153.845092773438 209.6251983642578 1153.585693359375 C 209.2915802001953 1153.253051757812 209.0314483642578 1152.89404296875 208.7798919677734 1152.546997070312 C 208.6939392089844 1152.428466796875 208.6127624511719 1152.31640625 208.5304107666016 1152.207885742188 C 207.7709197998047 1151.206176757812 207.3780212402344 1150.197387695312 207.3623352050781 1149.209228515625 C 207.3451538085938 1148.125854492188 207.7722778320312 1147.118408203125 208.6318664550781 1146.21484375 C 209.7814025878906 1145.00634765625 210.0902557373047 1143.772094726562 209.6978607177734 1141.954467773438 C 209.2118377685547 1139.698120117188 210.3590850830078 1137.656005859375 212.4876556396484 1136.988159179688 C 214.3194732666016 1136.411499023438 215.2813568115234 1135.469604492188 215.8068389892578 1133.737426757812 C 216.3726654052734 1131.87255859375 217.8761291503906 1130.714111328125 219.7305145263672 1130.714111328125 C 220.1287384033203 1130.714111328125 220.5396118164062 1130.767456054688 220.9517059326172 1130.872802734375 C 221.3914794921875 1130.985107421875 221.7914123535156 1131.039672851562 222.1741943359375 1131.039672851562 C 223.1983795166016 1131.039672851562 224.1148376464844 1130.627807617188 225.1457366943359 1129.704345703125 C 226.0373840332031 1128.906494140625 227.0485534667969 1128.48486328125 228.0703125 1128.48486328125 Z M 233.2825622558594 1135.999633789062 C 231.5650024414062 1135.999633789062 230.1293334960938 1135.43603515625 228.8934936523438 1134.276733398438 C 228.8229675292969 1134.210571289062 228.755859375 1134.147338867188 228.6919860839844 1134.087158203125 C 228.4710388183594 1133.879150390625 228.2448120117188 1133.666137695312 228.0892944335938 1133.53662109375 C 227.9500732421875 1133.642456054688 227.7574615478516 1133.804809570312 227.5805969238281 1133.953979492188 C 227.4514617919922 1134.062744140625 227.30859375 1134.183227539062 227.1490325927734 1134.31494140625 C 226.1682586669922 1135.125244140625 224.8129577636719 1136.055297851562 223.0240173339844 1136.055297851562 C 222.6809234619141 1136.055297851562 222.3285369873047 1136.020385742188 221.9766540527344 1135.95166015625 C 221.8596343994141 1135.9287109375 221.7163848876953 1135.916137695312 221.5647125244141 1135.902954101562 C 221.2527923583984 1135.875732421875 220.8992462158203 1135.844848632812 220.5314331054688 1135.711547851562 C 220.3548278808594 1135.6474609375 220.2581787109375 1135.640502929688 220.2247924804688 1135.640502929688 C 220.2243804931641 1135.640502929688 220.2239685058594 1135.640502929688 220.2235717773438 1135.640502929688 C 220.1920928955078 1135.679809570312 220.1105194091797 1135.804809570312 220.0244445800781 1136.123901367188 C 219.3141632080078 1138.759521484375 217.7521362304688 1140.397216796875 215.2491149902344 1141.130493164062 C 214.864501953125 1141.243041992188 214.6001586914062 1141.332397460938 214.4597778320312 1141.397094726562 C 214.4721069335938 1141.6123046875 214.5505981445312 1142.028442382812 214.6213073730469 1142.403442382812 L 214.6224060058594 1142.409301757812 C 214.6246795654297 1142.421752929688 214.6327972412109 1142.453735351562 214.6393127441406 1142.479370117188 C 214.6564025878906 1142.546752929688 214.6776733398438 1142.630493164062 214.6932830810547 1142.730346679688 C 214.9410858154297 1144.291870117188 214.9975738525391 1145.956298828125 213.7414245605469 1147.533203125 C 213.2024536132812 1148.209716796875 212.5916442871094 1148.976318359375 212.5927124023438 1149.2333984375 C 212.5937347412109 1149.484741210938 213.1248931884766 1150.174926757812 213.7399444580078 1150.97412109375 L 213.7474365234375 1150.98388671875 C 214.6439208984375 1152.147583007812 215.0081634521484 1153.304321289062 214.8607025146484 1154.519897460938 C 214.7844390869141 1155.14306640625 214.6828918457031 1155.785522460938 214.5501251220703 1156.485107421875 C 214.4634246826172 1156.942626953125 214.5145416259766 1157.0830078125 214.5256652832031 1157.106567382812 C 214.5387420654297 1157.134155273438 214.6496734619141 1157.211181640625 214.9091186523438 1157.272827148438 C 217.5906524658203 1157.907592773438 219.3560638427734 1159.647216796875 220.0190124511719 1162.306274414062 C 220.0628814697266 1162.386474609375 220.1284942626953 1162.51611328125 220.1660919189453 1162.68310546875 C 220.1846466064453 1162.764282226562 220.2037963867188 1162.818481445312 220.2183837890625 1162.852416992188 C 220.274169921875 1162.85107421875 220.369140625 1162.840454101562 220.5184936523438 1162.80078125 C 221.3798675537109 1162.571899414062 222.1606140136719 1162.460571289062 222.9051361083984 1162.460571289062 C 224.6917877197266 1162.460571289062 226.2225799560547 1163.12890625 227.4553985595703 1164.446899414062 C 227.4765319824219 1164.461303710938 227.5155487060547 1164.484985351562 227.5453186035156 1164.503051757812 C 227.6808471679688 1164.585327148438 227.8664703369141 1164.697998046875 228.0386962890625 1164.881591796875 C 228.0506744384766 1164.894409179688 228.0617828369141 1164.90576171875 228.072021484375 1164.915893554688 C 228.0986022949219 1164.89453125 228.1308288574219 1164.866577148438 228.1687622070312 1164.830322265625 C 229.8529968261719 1163.215576171875 231.5581359863281 1162.430297851562 233.3810119628906 1162.430297851562 C 233.9965209960938 1162.430297851562 234.6329345703125 1162.522094726562 235.2725830078125 1162.702880859375 C 235.3680877685547 1162.729858398438 235.4580230712891 1162.755981445312 235.5427856445312 1162.780517578125 C 235.6560516357422 1162.8134765625 235.7840881347656 1162.8505859375 235.8916778564453 1162.878784179688 C 235.9521789550781 1162.736572265625 236.0403289794922 1162.4970703125 236.1663360595703 1162.09326171875 C 236.5626220703125 1160.822631835938 237.1381683349609 1159.821411132812 237.9258117675781 1159.032348632812 C 238.7467041015625 1158.210083007812 239.7975921630859 1157.641235351562 241.0496978759766 1157.341186523438 C 241.0660095214844 1157.333984375 241.0929412841797 1157.321166992188 241.1136932373047 1157.311157226562 C 241.2124786376953 1157.264038085938 241.3477630615234 1157.199462890625 241.5173187255859 1157.154907226562 C 241.5753936767578 1157.139770507812 241.6158447265625 1157.124877929688 241.6427764892578 1157.113159179688 C 241.6412811279297 1157.082885742188 241.6363525390625 1157.038452148438 241.6232452392578 1156.977416992188 C 241.5758819580078 1156.75537109375 241.5472869873047 1156.54638671875 241.5196228027344 1156.344360351562 C 241.5046234130859 1156.234619140625 241.4904327392578 1156.131103515625 241.4740295410156 1156.031372070312 C 241.1992645263672 1154.361938476562 241.0453491210938 1152.59228515625 242.4120330810547 1150.921630859375 C 242.9267120361328 1150.292724609375 243.5670776367188 1149.510375976562 243.5676116943359 1149.264526367188 C 243.568115234375 1149.027954101562 243.0202026367188 1148.320922851562 242.4400939941406 1147.572387695312 C 241.7684020996094 1146.705444335938 240.9303131103516 1145.3388671875 241.3697662353516 1143.442993164062 C 241.4649963378906 1143.030883789062 241.5069274902344 1142.576293945312 241.5474853515625 1142.136596679688 C 241.5647735595703 1141.94921875 241.5826110839844 1141.755737304688 241.6044921875 1141.56787109375 L 241.6053771972656 1141.53857421875 C 241.6068420410156 1141.490844726562 241.6084289550781 1141.439453125 241.6096649169922 1141.3896484375 C 241.5652160644531 1141.377075195312 241.5126342773438 1141.362915039062 241.4504852294922 1141.346923828125 C 238.5442810058594 1140.599487304688 236.6968841552734 1138.740844726562 235.9598388671875 1135.822509765625 L 235.9581146240234 1135.817138671875 C 235.9516448974609 1135.797119140625 235.9452819824219 1135.777099609375 235.9393157958984 1135.7568359375 C 235.9288940429688 1135.72216796875 235.9190826416016 1135.69384765625 235.9103698730469 1135.671020507812 C 235.8693542480469 1135.674926757812 235.8138122558594 1135.682983398438 235.7404174804688 1135.69873046875 C 234.7821350097656 1135.904052734375 234.0013427734375 1135.999633789062 233.2825622558594 1135.999633789062 Z M 236.7661895751953 1167.694458007812 L 236.7105712890625 1167.690063476562 C 235.9245452880859 1167.627807617188 235.1820983886719 1167.568969726562 234.4478759765625 1167.508056640625 C 234.2402954101562 1167.490966796875 234.0390167236328 1167.4638671875 233.8443450927734 1167.437622070312 C 233.5759582519531 1167.401489257812 233.3224639892578 1167.367309570312 233.1045837402344 1167.367309570312 C 232.9042205810547 1167.367309570312 232.7560577392578 1167.389282226562 232.62548828125 1167.483154296875 L 236.2214508056641 1175.939331054688 C 236.2730102539062 1175.841552734375 236.3238983154297 1175.744506835938 236.3744812011719 1175.64697265625 C 236.8533020019531 1174.72216796875 237.6343994140625 1174.212280273438 238.5733795166016 1174.212280273438 C 238.8697052001953 1174.212280273438 239.1844940185547 1174.263549804688 239.509033203125 1174.364501953125 C 239.5505065917969 1174.37744140625 239.5919036865234 1174.390258789062 239.6333160400391 1174.403076171875 C 239.1696929931641 1173.318359375 238.7150726318359 1172.254516601562 238.2683868408203 1171.209228515625 L 236.7661895751953 1167.694458007812 Z M 223.4801635742188 1167.54736328125 C 223.2958374023438 1167.454345703125 223.1102600097656 1167.370239257812 223.0233459472656 1167.370239257812 C 222.0592041015625 1167.393676757812 221.0873260498047 1167.516479492188 220.0583953857422 1167.646606445312 C 219.8192291259766 1167.6767578125 219.5755004882812 1167.70751953125 219.3286285400391 1167.737548828125 C 218.7228698730469 1169.157348632812 218.1040191650391 1170.607666015625 217.4680480957031 1172.098022460938 L 216.4810180664062 1174.4111328125 C 216.5060424804688 1174.402954101562 216.5309906005859 1174.394775390625 216.5559234619141 1174.386474609375 C 216.9008636474609 1174.272216796875 217.2350921630859 1174.214233398438 217.5491027832031 1174.214233398438 C 218.2201538085938 1174.214233398438 219.1516723632812 1174.471557617188 219.7787322998047 1175.697265625 C 219.8210906982422 1175.780029296875 219.8638916015625 1175.862426757812 219.9073486328125 1175.9453125 C 220.5590667724609 1174.41357421875 221.2022705078125 1172.901611328125 221.8468475341797 1171.386474609375 L 223.4801635742188 1167.54736328125 Z" stroke="none" fill="#fff"/>
      </g>
      <g id="Path_686" data-name="Path 686" transform="translate(-209.97 -1131.156)" fill="#1e7ae0" stroke-linecap="round" stroke-linejoin="bevel">
        <path d="M 224.6499786376953 1160.472045898438 C 224.1349945068359 1160.472045898438 223.6622924804688 1160.270385742188 223.3189392089844 1159.904418945312 C 222.9444885253906 1159.50537109375 222.7597198486328 1158.949829101562 222.7986755371094 1158.340209960938 L 222.8003692626953 1158.3134765625 L 222.804931640625 1158.287109375 C 222.8720703125 1157.897827148438 222.9437713623047 1157.503662109375 223.0130920410156 1157.122436523438 C 223.1864318847656 1156.16943359375 223.3656768798828 1155.183837890625 223.4841918945312 1154.214477539062 C 223.5148620605469 1153.961303710938 223.3957824707031 1153.568725585938 223.2342681884766 1153.391235351562 C 222.8445739746094 1152.963745117188 222.4101867675781 1152.550415039062 221.9900970458984 1152.15087890625 C 221.4918975830078 1151.676879882812 220.9767303466797 1151.186767578125 220.5119476318359 1150.652709960938 C 220.1300659179688 1150.213500976562 219.6213836669922 1149.26123046875 219.8815765380859 1148.5751953125 C 220.1207275390625 1147.941650390625 220.9225006103516 1147.441040039062 221.6108551025391 1147.226318359375 C 222.4772338867188 1146.95751953125 223.4004974365234 1146.815551757812 224.2816162109375 1146.815551757812 C 224.3080596923828 1146.815551757812 224.3345947265625 1146.815673828125 224.3609771728516 1146.81591796875 L 224.4025421142578 1146.816162109375 C 225.5858001708984 1146.816162109375 226.2317810058594 1146.343383789062 226.6322021484375 1145.1845703125 C 226.9405364990234 1144.2919921875 227.4055633544922 1143.46142578125 227.8553009033203 1142.658325195312 L 227.9121246337891 1142.556762695312 C 228.3211975097656 1141.8251953125 228.9652404785156 1141.405639648438 229.6790313720703 1141.405639648438 C 230.3938598632812 1141.405639648438 231.0335083007812 1141.82666015625 231.4339294433594 1142.560546875 C 231.7589263916016 1143.155395507812 232.0597076416016 1143.770385742188 232.3505859375 1144.364990234375 C 232.6435546875 1144.963989257812 232.9465026855469 1145.583374023438 233.2697296142578 1146.171752929688 C 233.35986328125 1146.3349609375 233.6209106445312 1146.52978515625 233.7961883544922 1146.56396484375 C 234.3328247070312 1146.66845703125 234.8918304443359 1146.745361328125 235.4324493408203 1146.819702148438 C 236.1824493408203 1146.9228515625 236.9579772949219 1147.029541015625 237.7147674560547 1147.213500976562 C 238.3817901611328 1147.37548828125 239.2253112792969 1147.905639648438 239.4745178222656 1148.568969726562 C 239.7217559814453 1149.223388671875 239.2568511962891 1150.179077148438 238.8476715087891 1150.6484375 C 238.3785705566406 1151.18603515625 237.8583831787109 1151.677978515625 237.3553314208984 1152.153686523438 C 236.93701171875 1152.549194335938 236.5044403076172 1152.958251953125 236.1154327392578 1153.3818359375 C 235.9474945068359 1153.564331054688 235.8207702636719 1153.95703125 235.8492889404297 1154.205932617188 C 235.9147338867188 1154.772338867188 236.0236206054688 1155.353149414062 236.1289367675781 1155.914794921875 C 236.257080078125 1156.598266601562 236.3895874023438 1157.305053710938 236.4521331787109 1158.0185546875 C 236.5034027099609 1158.597900390625 236.315673828125 1159.608764648438 235.7377014160156 1160.041137695312 C 235.4094543457031 1160.2880859375 234.9649658203125 1160.340209960938 234.6500549316406 1160.340209960938 C 234.6500244140625 1160.340209960938 234.6500091552734 1160.340209960938 234.6499633789062 1160.340209960938 C 234.2792816162109 1160.340209960938 233.8937835693359 1160.267944335938 233.5923309326172 1160.141845703125 C 232.9385375976562 1159.868896484375 232.3134918212891 1159.529907226562 231.7090301513672 1159.202026367188 C 231.2002563476562 1158.926147460938 230.6741485595703 1158.640747070312 230.1470642089844 1158.4052734375 C 230.0292663574219 1158.352416992188 229.8602905273438 1158.322265625 229.682861328125 1158.322265625 C 229.5002593994141 1158.322265625 229.3253784179688 1158.353881835938 229.2030792236328 1158.409057617188 C 228.5491485595703 1158.703979492188 227.897216796875 1159.052734375 227.2667388916016 1159.39013671875 C 226.7274475097656 1159.6787109375 226.1697692871094 1159.977172851562 225.6033630371094 1160.24658203125 C 225.2888793945312 1160.396118164062 224.9681243896484 1160.472045898438 224.6499786376953 1160.472045898438 Z M 224.4822845458984 1150.205200195312 C 225.5128936767578 1150.972534179688 226.1935577392578 1151.880126953125 226.5114898681641 1152.9140625 C 226.8192291259766 1153.914794921875 226.7997131347656 1155.017822265625 226.448974609375 1156.261474609375 C 226.5691223144531 1156.199951171875 226.6879119873047 1156.138305664062 226.8056488037109 1156.0771484375 C 227.7942504882812 1155.564331054688 228.72802734375 1155.079956054688 229.7007598876953 1155.079223632812 C 230.6733245849609 1155.079223632812 231.6023406982422 1155.562866210938 232.5858917236328 1156.075073242188 C 232.6877136230469 1156.128051757812 232.7903442382812 1156.181518554688 232.8939361572266 1156.23486328125 C 232.1908569335938 1153.802124023438 232.8516998291016 1151.77197265625 234.8655548095703 1150.177978515625 C 234.7455749511719 1150.159301757812 234.6264038085938 1150.141479492188 234.5081787109375 1150.123657226562 C 233.4086303710938 1149.958129882812 232.3700408935547 1149.801879882812 231.5850524902344 1149.224731445312 C 230.7694244384766 1148.625244140625 230.2903289794922 1147.65869140625 229.8270263671875 1146.723999023438 C 229.7757568359375 1146.62060546875 229.7252502441406 1146.518676757812 229.6748809814453 1146.418334960938 C 229.6230926513672 1146.523071289062 229.5719604492188 1146.628051757812 229.5213012695312 1146.732055664062 C 229.0694122314453 1147.65966796875 228.6021118164062 1148.618896484375 227.7991333007812 1149.2041015625 C 227.0012817382812 1149.785278320312 225.9525604248047 1149.959838867188 224.8422393798828 1150.144775390625 C 224.7231750488281 1150.164672851562 224.6031799316406 1150.1845703125 224.4822845458984 1150.205200195312 Z" stroke="none"/>
        <path d="M 229.6790313720703 1141.905639648438 C 229.1813049316406 1141.905639648438 228.6817932128906 1142.204833984375 228.3484649658203 1142.800903320312 C 227.8871765136719 1143.625366210938 227.4111633300781 1144.4609375 227.1047821044922 1145.347900390625 C 226.6424560546875 1146.685913085938 225.8235015869141 1147.316162109375 224.4025421142578 1147.316162109375 C 224.3626098632812 1147.316162109375 224.3220672607422 1147.315551757812 224.2816162109375 1147.315551757812 C 223.4373779296875 1147.315551757812 222.5643310546875 1147.453979492188 221.759765625 1147.70361328125 C 221.2127838134766 1147.874267578125 220.5264892578125 1148.282592773438 220.3490753173828 1148.752563476562 C 220.1941528320312 1149.161010742188 220.5368804931641 1149.919311523438 220.8891296386719 1150.324462890625 C 221.7294769287109 1151.290161132812 222.7402954101562 1152.107055664062 223.6040344238281 1153.0546875 C 223.8680267333984 1153.3447265625 224.0281219482422 1153.882080078125 223.9804992675781 1154.275146484375 C 223.8126068115234 1155.6484375 223.5330657958984 1157.007202148438 223.2976531982422 1158.3720703125 C 223.2197570800781 1159.591430664062 224.2626800537109 1160.330810546875 225.3886108398438 1159.795043945312 C 226.6080169677734 1159.215087890625 227.7677459716797 1158.5078125 228.9975280761719 1157.953247070312 C 229.3791961669922 1157.781127929688 229.9694366455078 1157.777465820312 230.35107421875 1157.94873046875 C 231.5212097167969 1158.4716796875 232.6055755615234 1159.188110351562 233.7852020263672 1159.680541992188 C 234.2698822021484 1159.883422851562 235.0712738037109 1159.916870117188 235.4382171630859 1159.640747070312 C 235.8094940185547 1159.363037109375 236.0007629394531 1158.590209960938 235.9540405273438 1158.062255859375 C 235.8423919677734 1156.788330078125 235.4996490478516 1155.535888671875 235.3525238037109 1154.262817382812 C 235.3075561523438 1153.869995117188 235.4797515869141 1153.334228515625 235.7471923828125 1153.043579101562 C 236.6152191162109 1152.098510742188 237.628662109375 1151.284912109375 238.4707794189453 1150.319946289062 C 238.822998046875 1149.915893554688 239.1613922119141 1149.154907226562 239.0064697265625 1148.744873046875 C 238.8299407958984 1148.275024414062 238.1418762207031 1147.831787109375 237.5966339111328 1147.699340820312 C 236.3218688964844 1147.389404296875 234.9933929443359 1147.306518554688 233.7003936767578 1147.0546875 C 233.3758697509766 1146.991333007812 232.9924621582031 1146.703979492188 232.8314819335938 1146.412475585938 C 232.1815338134766 1145.229248046875 231.6423492431641 1143.98486328125 230.9949951171875 1142.800048828125 C 230.6692657470703 1142.203002929688 230.175048828125 1141.905639648438 229.6790313720703 1141.905639648438 M 233.7877807617188 1157.218383789062 C 232.1988372802734 1156.53515625 230.9503479003906 1155.579223632812 229.7030639648438 1155.579223632812 C 229.702392578125 1155.579223632812 229.7018432617188 1155.579223632812 229.7011566162109 1155.579223632812 C 228.4479675292969 1155.580200195312 227.1956481933594 1156.53662109375 225.5816040039062 1157.228881835938 C 226.8711242675781 1154.106323242188 226.3042449951172 1151.660522460938 223.1609191894531 1149.958984375 C 224.8849182128906 1149.54345703125 226.4721221923828 1149.552124023438 227.5046234130859 1148.800048828125 C 228.5171966552734 1148.06201171875 228.9654998779297 1146.550048828125 229.6717071533203 1145.361694335938 C 230.3813781738281 1146.54052734375 230.849609375 1148.063720703125 231.8812103271484 1148.821899414062 C 232.8885955810547 1149.5625 234.4697723388672 1149.523803710938 236.1426849365234 1149.905517578125 C 233.2399597167969 1151.65087890625 232.3762664794922 1154.036254882812 233.7877807617188 1157.218383789062 M 229.6789245605469 1140.905639648438 L 229.6790008544922 1140.905639648438 C 230.5692291259766 1140.90576171875 231.3893585205078 1141.434814453125 231.8728485107422 1142.321166992188 C 232.2031097412109 1142.925537109375 232.5064086914062 1143.545654296875 232.7997283935547 1144.145385742188 C 233.0892181396484 1144.737182617188 233.3885192871094 1145.348999023438 233.7049102783203 1145.925415039062 C 233.7384796142578 1145.974853515625 233.8433837890625 1146.054809570312 233.9006500244141 1146.074951171875 C 234.4205474853516 1146.17578125 234.9452819824219 1146.248046875 235.5005798339844 1146.324340820312 C 236.2629852294922 1146.42919921875 237.0513458251953 1146.53759765625 237.8328857421875 1146.727661132812 C 238.6442718505859 1146.924682617188 239.6296081542969 1147.560180664062 239.9425811767578 1148.393188476562 C 240.2828216552734 1149.293579101562 239.6996917724609 1150.432006835938 239.2245788574219 1150.97705078125 C 238.7395324707031 1151.532836914062 238.2104949951172 1152.033081054688 237.6988677978516 1152.516967773438 C 237.2678680419922 1152.924560546875 236.8607788085938 1153.309448242188 236.4836883544922 1153.719970703125 C 236.4120025634766 1153.798583984375 236.3338775634766 1154.042846679688 236.3460388183594 1154.149047851562 C 236.4094085693359 1154.697387695312 236.5118865966797 1155.244018554688 236.6203765869141 1155.822631835938 C 236.750732421875 1156.517944335938 236.8855438232422 1157.236938476562 236.9502258300781 1157.974975585938 C 237.0096893310547 1158.646850585938 236.8156890869141 1159.859252929688 236.0371704101562 1160.441528320312 C 235.5996856689453 1160.770751953125 235.0411224365234 1160.840209960938 234.6499786376953 1160.840209960938 C 234.2091674804688 1160.840209960938 233.7650604248047 1160.755981445312 233.3994598388672 1160.603149414062 C 232.7224884033203 1160.320556640625 232.0860900878906 1159.975341796875 231.4706420898438 1159.6416015625 C 230.9471130371094 1159.357666015625 230.45263671875 1159.089477539062 229.9430541992188 1158.861694335938 C 229.9118499755859 1158.84765625 229.819091796875 1158.822265625 229.682861328125 1158.822265625 C 229.5406494140625 1158.822265625 229.4412994384766 1158.85009765625 229.4086303710938 1158.864868164062 C 228.7701416015625 1159.152709960938 228.1544647216797 1159.482177734375 227.5026397705078 1159.8310546875 C 226.9582214355469 1160.122314453125 226.3952331542969 1160.423583984375 225.8181304931641 1160.698120117188 C 225.4360046386719 1160.8798828125 225.0429992675781 1160.972045898438 224.6499786376953 1160.972045898438 C 223.9953765869141 1160.972045898438 223.3931579589844 1160.71435546875 222.9542999267578 1160.24658203125 C 222.4843292236328 1159.74560546875 222.2518463134766 1159.057250976562 222.2996826171875 1158.308349609375 L 222.3122100830078 1158.2021484375 C 222.3797302246094 1157.810546875 222.4516296386719 1157.415283203125 222.5211486816406 1157.032958984375 C 222.6932220458984 1156.087036132812 222.8711395263672 1155.108764648438 222.9878845214844 1154.15380859375 C 223.0020599365234 1154.036865234375 222.9262084960938 1153.79931640625 222.8640441894531 1153.727294921875 C 222.4870452880859 1153.313720703125 222.0782470703125 1152.9248046875 221.6454467773438 1152.513061523438 C 221.1388549804688 1152.031127929688 220.6150207519531 1151.532836914062 220.1347503662109 1150.98095703125 C 219.65869140625 1150.433349609375 219.07421875 1149.2939453125 219.4140777587891 1148.39794921875 C 219.73291015625 1147.553344726562 220.7165985107422 1146.981567382812 221.4619293212891 1146.7490234375 C 222.4039764404297 1146.456909179688 223.4094085693359 1146.30908203125 224.3658142089844 1146.31591796875 L 224.4025421142578 1146.316162109375 C 225.3694915771484 1146.316162109375 225.8292846679688 1145.977294921875 226.1596221923828 1145.021362304688 C 226.4824981689453 1144.086547851562 226.9585876464844 1143.236328125 227.4190216064453 1142.4140625 L 227.4757690429688 1142.312622070312 C 227.9684143066406 1141.431640625 228.7920532226562 1140.905639648438 229.6789245605469 1140.905639648438 Z M 233.7577667236328 1150.512451171875 C 232.8484802246094 1150.359497070312 231.9998016357422 1150.150268554688 231.2888793945312 1149.627563476562 C 230.5584411621094 1149.0908203125 230.0882263183594 1148.329833984375 229.6786651611328 1147.541137695312 C 229.2779235839844 1148.325439453125 228.8165283203125 1149.081298828125 228.0936279296875 1149.608154296875 C 227.3769989013672 1150.130126953125 226.5240631103516 1150.351928710938 225.6107177734375 1150.519775390625 C 226.2733764648438 1151.187744140625 226.7346954345703 1151.938842773438 226.9894104003906 1152.76708984375 C 227.2345581054688 1153.564331054688 227.2916412353516 1154.414672851562 227.1590423583984 1155.334350585938 C 227.9940795898438 1154.91748046875 228.8115692138672 1154.579956054688 229.7003784179688 1154.579223632812 C 230.5728149414062 1154.579223632812 231.3732147216797 1154.903564453125 232.1880340576172 1155.308959960938 C 231.9378814697266 1153.480590820312 232.4669189453125 1151.863525390625 233.7577667236328 1150.512451171875 Z" stroke="none" fill="#fff"/>
      </g>
    </g>
  </g>
</svg>
